<svg width="82" height="26" viewBox="0 0 82 26" fill="none" xmlns="http://www.w3.org/2000/svg">
<path fill-rule="evenodd" clip-rule="evenodd" d="M50.8678 20.5042C46.1682 24.0869 39.3343 26 33.4582 26C25.2193 26 17.8012 22.8548 12.1901 17.6217C11.7493 17.2101 12.1439 16.6497 12.673 16.9692C18.729 20.608 26.2168 22.7954 33.9508 22.7954C39.1674 22.7954 44.9058 21.6812 50.1823 19.3691C50.9796 19.0195 51.6456 19.9078 50.8661 20.5051M52.8254 18.193C52.2258 17.3983 48.855 17.8182 47.3301 18.0039C46.8682 18.0625 46.7978 17.6468 47.2134 17.3481C49.9035 15.3924 54.3195 15.957 54.8357 16.612C55.3518 17.267 54.702 21.8401 52.1731 24.0217C51.7842 24.3563 51.4147 24.1781 51.5873 23.7339C52.1545 22.2701 53.4282 18.9893 52.8254 18.1922" fill="#FF9900"/>
<path fill-rule="evenodd" clip-rule="evenodd" d="M47.4013 2.77862V0.866163C47.3996 0.802129 47.4106 0.738411 47.4337 0.678902C47.4568 0.619393 47.4915 0.565342 47.5356 0.520046C47.5798 0.474751 47.6324 0.439162 47.6904 0.415454C47.7484 0.391746 47.8104 0.380416 47.8728 0.382155H56.2144C56.4817 0.382155 56.6966 0.579967 56.6966 0.866163V2.50337C56.6933 2.77778 56.4669 3.13721 56.0684 3.70539L51.7467 10.0404C53.354 10 55.0483 10.2458 56.5047 11.0884C56.8327 11.2786 56.9147 11.5572 56.9475 11.8325V13.8737C56.9475 14.1515 56.6474 14.4781 56.3325 14.3098C53.7657 12.9293 50.3568 12.7778 47.5194 14.3241C47.2299 14.4857 46.9265 14.1625 46.9265 13.8847V11.9461C46.9265 11.6347 46.9298 11.1044 47.2332 10.6305L52.2412 3.25842H47.8909C47.6235 3.25842 47.4087 3.06482 47.4087 2.77862M16.9701 14.713H14.4329C14.1901 14.6944 13.9982 14.5076 13.9794 14.2694V0.898991C13.9794 0.631314 14.1975 0.419193 14.4681 0.419193H16.8348C17.0808 0.430136 17.2776 0.624579 17.2957 0.86532V2.61279H17.3424C17.9599 0.923401 19.1203 0.135523 20.6833 0.135523C22.2717 0.135523 23.264 0.923401 23.9782 2.61279C24.5933 0.923401 25.9874 0.135523 27.4839 0.135523C28.5476 0.135523 29.7112 0.585859 30.4214 1.59764C31.225 2.72222 31.061 4.3569 31.061 5.78956L31.0553 14.229C31.0553 14.4966 30.8371 14.713 30.5665 14.713H28.0244C27.7783 14.6944 27.5676 14.4857 27.5676 14.229V7.133C27.5676 6.56902 27.6168 5.16162 27.4962 4.6271C27.3076 3.7298 26.7393 3.47643 26.0038 3.47643C25.3887 3.47643 24.7474 3.89731 24.4867 4.57239C24.2259 5.24748 24.2513 6.37542 24.2513 7.13384V14.2214C24.2513 14.4891 24.0332 14.7054 23.7626 14.7054H21.2204C20.9637 14.6869 20.7636 14.4781 20.7636 14.2214L20.7604 7.13384C20.7604 5.64226 20.9998 3.44697 19.1965 3.44697C17.3727 3.44697 17.4441 5.5867 17.4441 7.13384V14.2214C17.4441 14.4891 17.226 14.7054 16.9553 14.7054M63.8786 0.146464C67.6442 0.146464 69.6829 3.46633 69.6829 7.68687C69.6829 11.7652 67.4302 15 63.8786 15C60.1883 15 58.1669 11.6801 58.1669 7.54377C58.1669 3.38131 60.2056 0.136364 63.8786 0.136364M63.8999 2.86616C62.0302 2.86616 61.9113 5.48232 61.9113 7.1128C61.9113 8.74327 61.8866 12.2348 63.8777 12.2348C65.8442 12.2348 65.9377 9.42088 65.9377 7.70623C65.9377 6.57828 65.891 5.22896 65.5605 4.15909C65.2751 3.22811 64.7076 2.86532 63.9007 2.86532M74.5671 14.713H72.0397C71.7937 14.6944 71.5829 14.4857 71.5829 14.229L71.5796 0.855219C71.601 0.609428 71.8117 0.419193 72.0684 0.419193H74.4219C74.6433 0.430136 74.8254 0.584176 74.8754 0.79293V2.83838H74.9221C75.6323 1.0101 76.6279 0.138048 78.3811 0.138048C79.5292 0.138048 80.6297 0.558924 81.344 1.71381C82 2.78283 82 4.58249 82 5.87626V14.2938C81.9713 14.5295 81.7605 14.7146 81.5112 14.7146H78.9707C78.7387 14.6961 78.546 14.521 78.5213 14.2938V7.03199C78.5213 5.56987 78.6854 3.42929 76.9329 3.42929C76.3154 3.42929 75.7479 3.85438 75.4568 4.49832C75.1001 5.31482 75.0534 6.12879 75.0534 7.0303V14.2306C75.0501 14.4983 74.8287 14.7146 74.5572 14.7146M40.7507 8.31734C40.7507 9.33249 40.7753 10.1692 40.2751 11.08C39.8716 11.8123 39.2295 12.2635 38.5185 12.2635C37.5443 12.2635 36.9727 11.5017 36.9727 10.3763C36.9727 8.15572 38.9113 7.75253 40.7491 7.75253V8.3165M43.3076 14.6667C43.1395 14.8207 42.8976 14.8317 42.709 14.729C41.8668 14.0109 41.7134 13.6768 41.2526 12.9924C39.8601 14.4503 38.872 14.8864 37.0687 14.8864C34.9308 14.8864 33.2702 13.5345 33.2702 10.8266C33.2702 8.71212 34.3838 7.27273 35.9764 6.56902C37.3541 5.94613 39.2779 5.8367 40.7491 5.66414V5.32744C40.7491 4.70791 40.7958 3.97559 40.4374 3.44024C40.1307 2.96044 39.5379 2.76263 39.013 2.76263C38.0454 2.76263 37.1843 3.27189 36.9744 4.32828C36.9317 4.56397 36.7636 4.79377 36.5316 4.80471L34.0714 4.53367C33.8647 4.48569 33.6327 4.31482 33.6942 3.98653C34.2584 0.922559 36.958 0 39.3689 0C40.6039 0 42.2178 0.336701 43.192 1.2963C44.427 2.4798 44.3089 4.05892 44.3089 5.77778V9.83754C44.3089 11.0581 44.8009 11.5926 45.2659 12.2534C45.4266 12.4891 45.4627 12.7702 45.2552 12.9461L43.315 14.6835L43.3117 14.6751M7.47885 8.32576C7.47885 9.34091 7.50345 10.1776 7.00322 11.0884C6.59976 11.8207 5.96176 12.2719 5.24668 12.2719C4.27246 12.2719 3.70498 11.5101 3.70498 10.3847C3.70498 8.16414 5.64358 7.76094 7.47721 7.76094V8.32492M10.0358 14.6751C9.86765 14.8291 9.62574 14.8401 9.43713 14.7374C8.59493 14.0194 8.45307 13.6852 7.98072 13.0008C6.58828 14.4588 5.60258 14.8948 3.79683 14.8948C1.66306 14.8956 0 13.5438 0 10.8367C0 8.72222 1.11691 7.28283 2.70616 6.57912C4.08385 5.95623 6.00768 5.8468 7.47885 5.67424V5.33754C7.47885 4.71801 7.52559 3.98569 7.17215 3.45034C6.86053 2.97054 6.2701 2.77273 5.74773 2.77273C4.78007 2.77273 3.91655 3.28199 3.6976 4.33839C3.65496 4.57408 3.48685 4.80387 3.25888 4.81482L0.795448 4.54377C0.588796 4.49579 0.360822 4.32492 0.418225 3.99663C0.985699 0.932661 3.68202 0.0101019 6.09297 0.0101019C7.32796 0.0101019 8.94182 0.346801 9.91603 1.3064C11.151 2.4899 11.0329 4.06902 11.0329 5.78788V9.84764C11.0329 11.0682 11.525 11.6027 11.9899 12.2635C12.1539 12.4992 12.19 12.7803 11.9817 12.9562L10.0464 14.6835L10.0382 14.6751" fill="white"/>
</svg>
