<svg width="19" height="20" viewBox="0 0 19 20" fill="none" xmlns="http://www.w3.org/2000/svg">
<path d="M18.0963 8.48748L10.339 1.35073C10.0868 1.11871 9.75471 0.993154 9.41211 1.00029C9.06951 1.00742 8.74293 1.1467 8.50063 1.38901L1.36613 8.52354L1 8.88963V19.4074H7.875V12.8449H11.625V19.4074H18.5V8.85889L18.0963 8.48748ZM9.43898 2.25002C9.45 2.25002 9.4432 2.25241 9.43848 2.25705C9.43359 2.25241 9.42797 2.25002 9.43898 2.25002ZM17.25 18.1574H12.875V12.8449C12.875 12.5134 12.7433 12.1954 12.5089 11.961C12.2745 11.7266 11.9565 11.5949 11.625 11.5949H7.875C7.54348 11.5949 7.22554 11.7266 6.99112 11.961C6.7567 12.1954 6.625 12.5134 6.625 12.8449V18.1574H2.25V9.40741L9.43898 2.27287C9.43949 2.27241 9.43953 2.27198 9.43992 2.27151L17.25 9.40741V18.1574Z" fill="black" stroke="black" stroke-width="0.8"/>
</svg>
