<svg width="153" height="18" viewBox="0 0 153 18" fill="none" xmlns="http://www.w3.org/2000/svg">
<path d="M14 8.75C14 7.78487 13.2151 7 12.25 7H11.375V4.375C11.375 1.96263 9.41237 0 7 0C4.58763 0 2.625 1.96263 2.625 4.375V7H1.75C0.784875 7 0 7.78487 0 8.75V15.75C0 16.7151 0.784875 17.5 1.75 17.5H12.25C13.2151 17.5 14 16.7151 14 15.75V8.75ZM4.375 4.375C4.375 2.92775 5.55275 1.75 7 1.75C8.44725 1.75 9.625 2.92775 9.625 4.375V7H4.375V4.375Z" fill="#707374"/>
<path d="M25.6278 6.56108V5.54545H32.7188V6.56108H29.7457V15H28.6009V6.56108H25.6278ZM34.0567 15V7.90909H35.1092V8.98011H35.1831C35.3123 8.62926 35.5462 8.34458 35.8848 8.12606C36.2233 7.90755 36.6049 7.79829 37.0297 7.79829C37.1097 7.79829 37.2097 7.79983 37.3297 7.80291C37.4498 7.80599 37.5406 7.81061 37.6021 7.81676V8.92472C37.5652 8.91548 37.4805 8.90163 37.3482 8.88317C37.2189 8.86162 37.082 8.85085 36.9373 8.85085C36.5926 8.85085 36.2849 8.92318 36.014 9.06783C35.7463 9.2094 35.5339 9.40637 35.377 9.65874C35.2231 9.90803 35.1461 10.1927 35.1461 10.5128V15H34.0567ZM41.4352 15.1662C40.9859 15.1662 40.5781 15.0816 40.2118 14.9123C39.8456 14.7399 39.5548 14.4922 39.3393 14.169C39.1239 13.8428 39.0162 13.4489 39.0162 12.9872C39.0162 12.581 39.0962 12.2517 39.2562 11.9993C39.4163 11.7438 39.6302 11.5438 39.8979 11.3991C40.1657 11.2545 40.4611 11.1468 40.7843 11.076C41.1105 11.0021 41.4383 10.9437 41.7676 10.9006C42.1985 10.8452 42.5478 10.8036 42.8155 10.7759C43.0864 10.7451 43.2833 10.6944 43.4064 10.6236C43.5326 10.5528 43.5957 10.4297 43.5957 10.2543V10.2173C43.5957 9.76184 43.4711 9.40791 43.2218 9.15554C42.9756 8.90317 42.6016 8.77699 42.1 8.77699C41.5799 8.77699 41.1721 8.89086 40.8766 9.11861C40.5812 9.34635 40.3734 9.58949 40.2534 9.84801L39.2193 9.47869C39.404 9.04782 39.6502 8.71236 39.9579 8.4723C40.2688 8.22917 40.6073 8.0599 40.9736 7.96449C41.3429 7.866 41.706 7.81676 42.0631 7.81676C42.2908 7.81676 42.5524 7.84446 42.8479 7.89986C43.1464 7.95218 43.4341 8.06143 43.7111 8.22763C43.9912 8.39382 44.2236 8.64465 44.4082 8.98011C44.5929 9.31558 44.6852 9.76491 44.6852 10.3281V15H43.5957V14.0398H43.5403C43.4665 14.1937 43.3434 14.3583 43.171 14.5337C42.9987 14.7092 42.7694 14.8584 42.4832 14.9815C42.1969 15.1046 41.8476 15.1662 41.4352 15.1662ZM41.6014 14.1875C42.0323 14.1875 42.3954 14.1029 42.6909 13.9336C42.9894 13.7643 43.2141 13.5458 43.3649 13.2781C43.5188 13.0103 43.5957 12.7287 43.5957 12.4332V11.4361C43.5496 11.4915 43.448 11.5423 43.291 11.5884C43.1372 11.6315 42.9587 11.67 42.7555 11.7038C42.5555 11.7346 42.36 11.7623 42.1692 11.7869C41.9815 11.8085 41.8292 11.8269 41.7122 11.8423C41.4291 11.8793 41.1644 11.9393 40.9182 12.0224C40.675 12.1024 40.4781 12.224 40.3273 12.3871C40.1795 12.5471 40.1057 12.7656 40.1057 13.0426C40.1057 13.4212 40.2457 13.7074 40.5258 13.9013C40.8089 14.0921 41.1675 14.1875 41.6014 14.1875ZM48.2182 10.7344V15H47.1288V7.90909H48.1813V9.01705H48.2736C48.4398 8.65696 48.6922 8.36766 49.0307 8.14915C49.3693 7.92756 49.8063 7.81676 50.3418 7.81676C50.8219 7.81676 51.242 7.91525 51.6021 8.11222C51.9622 8.30611 52.2423 8.60156 52.4423 8.99858C52.6424 9.39252 52.7424 9.8911 52.7424 10.4943V15H51.6529V10.5682C51.6529 10.0111 51.5083 9.57718 51.219 9.26633C50.9297 8.95241 50.5326 8.79545 50.0279 8.79545C49.6801 8.79545 49.3693 8.87086 49.0954 9.02166C48.8245 9.17247 48.6106 9.39252 48.4537 9.68182C48.2967 9.97112 48.2182 10.322 48.2182 10.7344ZM60.211 9.49716L59.2323 9.77415C59.1707 9.61103 59.0799 9.45253 58.9599 9.29865C58.843 9.14169 58.6829 9.01243 58.4798 8.91087C58.2767 8.8093 58.0166 8.75852 57.6996 8.75852C57.2657 8.75852 56.904 8.85855 56.6147 9.05859C56.3285 9.25556 56.1854 9.50639 56.1854 9.81108C56.1854 10.0819 56.2839 10.2958 56.4809 10.4528C56.6778 10.6097 56.9856 10.7405 57.4042 10.8452L58.4567 11.1037C59.0907 11.2576 59.5631 11.493 59.874 11.81C60.1848 12.1239 60.3402 12.5286 60.3402 13.0241C60.3402 13.4304 60.2233 13.7936 59.9894 14.1136C59.7586 14.4337 59.4354 14.6861 59.0199 14.8707C58.6044 15.0554 58.1213 15.1477 57.5704 15.1477C56.8471 15.1477 56.2485 14.9908 55.7745 14.6768C55.3006 14.3629 55.0005 13.9044 54.8743 13.3011L55.9084 13.0426C56.0069 13.4242 56.1931 13.7105 56.467 13.9013C56.744 14.0921 57.1056 14.1875 57.5519 14.1875C58.0597 14.1875 58.4629 14.0798 58.7614 13.8643C59.063 13.6458 59.2138 13.3842 59.2138 13.0795C59.2138 12.8333 59.1276 12.6271 58.9553 12.4609C58.7829 12.2917 58.5183 12.1655 58.1613 12.0824L56.9794 11.8054C56.3301 11.6515 55.853 11.413 55.5483 11.0898C55.2467 10.7636 55.0959 10.3558 55.0959 9.86648C55.0959 9.46638 55.2083 9.11245 55.4329 8.80469C55.6607 8.49692 55.97 8.25533 56.3608 8.0799C56.7548 7.90447 57.201 7.81676 57.6996 7.81676C58.4013 7.81676 58.9522 7.97064 59.3523 8.27841C59.7555 8.58617 60.0417 8.99242 60.211 9.49716ZM64.5219 15.1662C64.0726 15.1662 63.6648 15.0816 63.2985 14.9123C62.9323 14.7399 62.6414 14.4922 62.426 14.169C62.2106 13.8428 62.1029 13.4489 62.1029 12.9872C62.1029 12.581 62.1829 12.2517 62.3429 11.9993C62.503 11.7438 62.7169 11.5438 62.9846 11.3991C63.2524 11.2545 63.5478 11.1468 63.871 11.076C64.1972 11.0021 64.525 10.9437 64.8543 10.9006C65.2852 10.8452 65.6345 10.8036 65.9022 10.7759C66.1731 10.7451 66.37 10.6944 66.4931 10.6236C66.6193 10.5528 66.6824 10.4297 66.6824 10.2543V10.2173C66.6824 9.76184 66.5578 9.40791 66.3085 9.15554C66.0623 8.90317 65.6883 8.77699 65.1867 8.77699C64.6665 8.77699 64.2588 8.89086 63.9633 9.11861C63.6678 9.34635 63.4601 9.58949 63.3401 9.84801L62.306 9.47869C62.4906 9.04782 62.7369 8.71236 63.0446 8.4723C63.3555 8.22917 63.694 8.0599 64.0602 7.96449C64.4296 7.866 64.7927 7.81676 65.1497 7.81676C65.3775 7.81676 65.6391 7.84446 65.9345 7.89986C66.2331 7.95218 66.5208 8.06143 66.7978 8.22763C67.0779 8.39382 67.3102 8.64465 67.4949 8.98011C67.6796 9.31558 67.7719 9.76491 67.7719 10.3281V15H66.6824V14.0398H66.627C66.5531 14.1937 66.43 14.3583 66.2577 14.5337C66.0853 14.7092 65.8561 14.8584 65.5698 14.9815C65.2836 15.1046 64.9343 15.1662 64.5219 15.1662ZM64.6881 14.1875C65.119 14.1875 65.4821 14.1029 65.7776 13.9336C66.0761 13.7643 66.3008 13.5458 66.4516 13.2781C66.6055 13.0103 66.6824 12.7287 66.6824 12.4332V11.4361C66.6362 11.4915 66.5347 11.5423 66.3777 11.5884C66.2238 11.6315 66.0453 11.67 65.8422 11.7038C65.6422 11.7346 65.4467 11.7623 65.2559 11.7869C65.0682 11.8085 64.9158 11.8269 64.7989 11.8423C64.5157 11.8793 64.2511 11.9393 64.0048 12.0224C63.7617 12.1024 63.5647 12.224 63.4139 12.3871C63.2662 12.5471 63.1923 12.7656 63.1923 13.0426C63.1923 13.4212 63.3324 13.7074 63.6124 13.9013C63.8956 14.0921 64.2541 14.1875 64.6881 14.1875ZM73.0961 15.1477C72.4313 15.1477 71.8589 14.9908 71.3788 14.6768C70.8987 14.3629 70.5294 13.9305 70.2708 13.3796C70.0123 12.8287 69.8831 12.1993 69.8831 11.4915C69.8831 10.7713 70.0154 10.1358 70.2801 9.58487C70.5478 9.03089 70.9202 8.59848 71.3973 8.28764C71.8774 7.97372 72.4375 7.81676 73.0777 7.81676C73.5762 7.81676 74.0256 7.90909 74.4257 8.09375C74.8258 8.27841 75.1535 8.53693 75.409 8.86932C75.6644 9.2017 75.8229 9.58949 75.8845 10.0327H74.795C74.7119 9.70952 74.5272 9.4233 74.241 9.17401C73.9579 8.92164 73.5762 8.79545 73.0961 8.79545C72.6714 8.79545 72.299 8.90625 71.9789 9.12784C71.6619 9.34635 71.4142 9.65566 71.2357 10.0558C71.0603 10.4528 70.9725 10.919 70.9725 11.4545C70.9725 12.0024 71.0587 12.4794 71.2311 12.8857C71.4065 13.2919 71.6527 13.6074 71.9697 13.832C72.2898 14.0567 72.6653 14.169 73.0961 14.169C73.3793 14.169 73.6362 14.1198 73.8671 14.0213C74.0979 13.9228 74.2933 13.7812 74.4534 13.5966C74.6134 13.4119 74.7273 13.1903 74.795 12.9318H75.8845C75.8229 13.3504 75.6706 13.7274 75.4274 14.0629C75.1874 14.3952 74.8688 14.6599 74.4718 14.8569C74.0779 15.0508 73.6193 15.1477 73.0961 15.1477ZM80.8128 15.1477C80.1481 15.1477 79.5756 14.9908 79.0955 14.6768C78.6154 14.3629 78.2461 13.9305 77.9876 13.3796C77.729 12.8287 77.5998 12.1993 77.5998 11.4915C77.5998 10.7713 77.7321 10.1358 77.9968 9.58487C78.2645 9.03089 78.6369 8.59848 79.114 8.28764C79.5941 7.97372 80.1542 7.81676 80.7944 7.81676C81.293 7.81676 81.7423 7.90909 82.1424 8.09375C82.5425 8.27841 82.8703 8.53693 83.1257 8.86932C83.3811 9.2017 83.5396 9.58949 83.6012 10.0327H82.5117C82.4286 9.70952 82.244 9.4233 81.9577 9.17401C81.6746 8.92164 81.293 8.79545 80.8128 8.79545C80.3881 8.79545 80.0157 8.90625 79.6957 9.12784C79.3787 9.34635 79.1309 9.65566 78.9524 10.0558C78.777 10.4528 78.6893 10.919 78.6893 11.4545C78.6893 12.0024 78.7754 12.4794 78.9478 12.8857C79.1232 13.2919 79.3694 13.6074 79.6864 13.832C80.0065 14.0567 80.382 14.169 80.8128 14.169C81.096 14.169 81.353 14.1198 81.5838 14.0213C81.8146 13.9228 82.01 13.7812 82.1701 13.5966C82.3301 13.4119 82.444 13.1903 82.5117 12.9318H83.6012C83.5396 13.3504 83.3873 13.7274 83.1442 14.0629C82.9041 14.3952 82.5856 14.6599 82.1886 14.8569C81.7946 15.0508 81.336 15.1477 80.8128 15.1477ZM85.6489 15V7.90909H86.7384V15H85.6489ZM86.2029 6.72727C85.9905 6.72727 85.8074 6.65495 85.6535 6.5103C85.5027 6.36565 85.4273 6.19176 85.4273 5.98864C85.4273 5.78551 85.5027 5.61162 85.6535 5.46697C85.8074 5.32232 85.9905 5.25 86.2029 5.25C86.4152 5.25 86.5968 5.32232 86.7476 5.46697C86.9015 5.61162 86.9784 5.78551 86.9784 5.98864C86.9784 6.19176 86.9015 6.36565 86.7476 6.5103C86.5968 6.65495 86.4152 6.72727 86.2029 6.72727ZM92.0695 15.1477C91.4294 15.1477 90.8677 14.9954 90.3845 14.6907C89.9044 14.386 89.5289 13.9598 89.2581 13.4119C88.9903 12.8641 88.8565 12.224 88.8565 11.4915C88.8565 10.7528 88.9903 10.1081 89.2581 9.55717C89.5289 9.00627 89.9044 8.57848 90.3845 8.27379C90.8677 7.96911 91.4294 7.81676 92.0695 7.81676C92.7097 7.81676 93.2698 7.96911 93.7499 8.27379C94.2331 8.57848 94.6086 9.00627 94.8763 9.55717C95.1472 10.1081 95.2826 10.7528 95.2826 11.4915C95.2826 12.224 95.1472 12.8641 94.8763 13.4119C94.6086 13.9598 94.2331 14.386 93.7499 14.6907C93.2698 14.9954 92.7097 15.1477 92.0695 15.1477ZM92.0695 14.169C92.5558 14.169 92.9559 14.0444 93.2698 13.7951C93.5837 13.5458 93.8161 13.218 93.9669 12.8118C94.1177 12.4055 94.1931 11.9654 94.1931 11.4915C94.1931 11.0175 94.1177 10.5759 93.9669 10.1665C93.8161 9.75722 93.5837 9.42637 93.2698 9.17401C92.9559 8.92164 92.5558 8.79545 92.0695 8.79545C91.5833 8.79545 91.1832 8.92164 90.8692 9.17401C90.5553 9.42637 90.323 9.75722 90.1721 10.1665C90.0213 10.5759 89.9459 11.0175 89.9459 11.4915C89.9459 11.9654 90.0213 12.4055 90.1721 12.8118C90.323 13.218 90.5553 13.5458 90.8692 13.7951C91.1832 14.0444 91.5833 14.169 92.0695 14.169ZM91.5709 6.94886L92.6974 4.80682H93.9715L92.5312 6.94886H91.5709ZM98.4902 10.7344V15H97.4007V7.90909H98.4532V9.01705H98.5456C98.7118 8.65696 98.9641 8.36766 99.3027 8.14915C99.6412 7.92756 100.078 7.81676 100.614 7.81676C101.094 7.81676 101.514 7.91525 101.874 8.11222C102.234 8.30611 102.514 8.60156 102.714 8.99858C102.914 9.39252 103.014 9.8911 103.014 10.4943V15H101.925V10.5682C101.925 10.0111 101.78 9.57718 101.491 9.26633C101.202 8.95241 100.805 8.79545 100.3 8.79545C99.9521 8.79545 99.6412 8.87086 99.3673 9.02166C99.0965 9.17247 98.8826 9.39252 98.7256 9.68182C98.5686 9.97112 98.4902 10.322 98.4902 10.7344ZM114.594 9.49716L113.615 9.77415C113.554 9.61103 113.463 9.45253 113.343 9.29865C113.226 9.14169 113.066 9.01243 112.863 8.91087C112.66 8.8093 112.4 8.75852 112.083 8.75852C111.649 8.75852 111.287 8.85855 110.998 9.05859C110.712 9.25556 110.569 9.50639 110.569 9.81108C110.569 10.0819 110.667 10.2958 110.864 10.4528C111.061 10.6097 111.369 10.7405 111.787 10.8452L112.84 11.1037C113.474 11.2576 113.946 11.493 114.257 11.81C114.568 12.1239 114.723 12.5286 114.723 13.0241C114.723 13.4304 114.606 13.7936 114.373 14.1136C114.142 14.4337 113.819 14.6861 113.403 14.8707C112.988 15.0554 112.504 15.1477 111.954 15.1477C111.23 15.1477 110.632 14.9908 110.158 14.6768C109.684 14.3629 109.384 13.9044 109.257 13.3011L110.292 13.0426C110.39 13.4242 110.576 13.7105 110.85 13.9013C111.127 14.0921 111.489 14.1875 111.935 14.1875C112.443 14.1875 112.846 14.0798 113.145 13.8643C113.446 13.6458 113.597 13.3842 113.597 13.0795C113.597 12.8333 113.511 12.6271 113.338 12.4609C113.166 12.2917 112.901 12.1655 112.544 12.0824L111.363 11.8054C110.713 11.6515 110.236 11.413 109.932 11.0898C109.63 10.7636 109.479 10.3558 109.479 9.86648C109.479 9.46638 109.591 9.11245 109.816 8.80469C110.044 8.49692 110.353 8.25533 110.744 8.0799C111.138 7.90447 111.584 7.81676 112.083 7.81676C112.784 7.81676 113.335 7.97064 113.735 8.27841C114.139 8.58617 114.425 8.99242 114.594 9.49716ZM121.287 12.1009V7.90909H122.377V15H121.287V13.7997H121.213C121.047 14.1598 120.789 14.466 120.438 14.7184C120.087 14.9677 119.644 15.0923 119.108 15.0923C118.665 15.0923 118.271 14.9954 117.926 14.8015C117.582 14.6045 117.311 14.3091 117.114 13.9151C116.917 13.5181 116.818 13.018 116.818 12.4148V7.90909H117.908V12.3409C117.908 12.858 118.053 13.2704 118.342 13.5781C118.634 13.8859 119.007 14.0398 119.459 14.0398C119.73 14.0398 120.005 13.9705 120.285 13.832C120.569 13.6935 120.806 13.4812 120.996 13.195C121.19 12.9087 121.287 12.544 121.287 12.1009ZM127.689 17.8068C127.163 17.8068 126.711 17.7391 126.332 17.6037C125.954 17.4714 125.638 17.2959 125.386 17.0774C125.136 16.862 124.938 16.6312 124.79 16.3849L125.658 15.7756C125.757 15.9048 125.881 16.0526 126.032 16.2188C126.183 16.388 126.389 16.5342 126.651 16.6573C126.915 16.7835 127.262 16.8466 127.689 16.8466C128.262 16.8466 128.734 16.7081 129.107 16.4311C129.479 16.1541 129.665 15.7202 129.665 15.1293V13.6889H129.573C129.493 13.8182 129.379 13.9782 129.231 14.169C129.087 14.3568 128.877 14.5245 128.603 14.6722C128.333 14.8169 127.966 14.8892 127.505 14.8892C126.932 14.8892 126.418 14.7538 125.963 14.483C125.51 14.2121 125.152 13.8182 124.887 13.3011C124.626 12.7841 124.495 12.1562 124.495 11.4176C124.495 10.6913 124.622 10.0588 124.878 9.52024C125.133 8.97857 125.489 8.56001 125.944 8.26456C126.4 7.96603 126.926 7.81676 127.523 7.81676C127.985 7.81676 128.351 7.8937 128.622 8.04759C128.896 8.19839 129.105 8.37074 129.25 8.56463C129.397 8.75544 129.511 8.91241 129.591 9.03551H129.702V7.90909H130.755V15.2031C130.755 15.8125 130.616 16.308 130.339 16.6896C130.065 17.0743 129.696 17.3559 129.231 17.5344C128.77 17.716 128.256 17.8068 127.689 17.8068ZM127.652 13.9105C128.089 13.9105 128.459 13.8105 128.76 13.6104C129.062 13.4104 129.291 13.1226 129.448 12.7472C129.605 12.3717 129.684 11.9223 129.684 11.3991C129.684 10.8883 129.607 10.4374 129.453 10.0465C129.299 9.65566 129.071 9.34943 128.77 9.12784C128.468 8.90625 128.096 8.79545 127.652 8.79545C127.191 8.79545 126.806 8.91241 126.498 9.14631C126.194 9.38021 125.964 9.69413 125.81 10.0881C125.66 10.482 125.584 10.919 125.584 11.3991C125.584 11.8916 125.661 12.3271 125.815 12.7056C125.972 13.0811 126.203 13.3765 126.508 13.592C126.815 13.8043 127.197 13.9105 127.652 13.9105ZM137.673 12.1009V7.90909H138.762V15H137.673V13.7997H137.599C137.433 14.1598 137.174 14.466 136.823 14.7184C136.472 14.9677 136.029 15.0923 135.494 15.0923C135.051 15.0923 134.657 14.9954 134.312 14.8015C133.967 14.6045 133.696 14.3091 133.499 13.9151C133.302 13.5181 133.204 13.018 133.204 12.4148V7.90909H134.293V12.3409C134.293 12.858 134.438 13.2704 134.727 13.5781C135.02 13.8859 135.392 14.0398 135.845 14.0398C136.115 14.0398 136.391 13.9705 136.671 13.832C136.954 13.6935 137.191 13.4812 137.382 13.195C137.576 12.9087 137.673 12.544 137.673 12.1009ZM141.213 15V7.90909H142.265V8.98011H142.339C142.468 8.62926 142.702 8.34458 143.041 8.12606C143.379 7.90755 143.761 7.79829 144.186 7.79829C144.266 7.79829 144.366 7.79983 144.486 7.80291C144.606 7.80599 144.697 7.81061 144.758 7.81676V8.92472C144.721 8.91548 144.637 8.90163 144.504 8.88317C144.375 8.86162 144.238 8.85085 144.093 8.85085C143.749 8.85085 143.441 8.92318 143.17 9.06783C142.902 9.2094 142.69 9.40637 142.533 9.65874C142.379 9.90803 142.302 10.1927 142.302 10.5128V15H141.213ZM148.591 15.1662C148.142 15.1662 147.734 15.0816 147.368 14.9123C147.002 14.7399 146.711 14.4922 146.495 14.169C146.28 13.8428 146.172 13.4489 146.172 12.9872C146.172 12.581 146.252 12.2517 146.412 11.9993C146.572 11.7438 146.786 11.5438 147.054 11.3991C147.322 11.2545 147.617 11.1468 147.94 11.076C148.267 11.0021 148.594 10.9437 148.924 10.9006C149.355 10.8452 149.704 10.8036 149.972 10.7759C150.242 10.7451 150.439 10.6944 150.563 10.6236C150.689 10.5528 150.752 10.4297 150.752 10.2543V10.2173C150.752 9.76184 150.627 9.40791 150.378 9.15554C150.132 8.90317 149.758 8.77699 149.256 8.77699C148.736 8.77699 148.328 8.89086 148.033 9.11861C147.737 9.34635 147.529 9.58949 147.409 9.84801L146.375 9.47869C146.56 9.04782 146.806 8.71236 147.114 8.4723C147.425 8.22917 147.763 8.0599 148.13 7.96449C148.499 7.866 148.862 7.81676 149.219 7.81676C149.447 7.81676 149.708 7.84446 150.004 7.89986C150.302 7.95218 150.59 8.06143 150.867 8.22763C151.147 8.39382 151.38 8.64465 151.564 8.98011C151.749 9.31558 151.841 9.76491 151.841 10.3281V15H150.752V14.0398H150.696C150.623 14.1937 150.499 14.3583 150.327 14.5337C150.155 14.7092 149.925 14.8584 149.639 14.9815C149.353 15.1046 149.004 15.1662 148.591 15.1662ZM148.757 14.1875C149.188 14.1875 149.551 14.1029 149.847 13.9336C150.145 13.7643 150.37 13.5458 150.521 13.2781C150.675 13.0103 150.752 12.7287 150.752 12.4332V11.4361C150.706 11.4915 150.604 11.5423 150.447 11.5884C150.293 11.6315 150.115 11.67 149.912 11.7038C149.712 11.7346 149.516 11.7623 149.325 11.7869C149.138 11.8085 148.985 11.8269 148.868 11.8423C148.585 11.8793 148.32 11.9393 148.074 12.0224C147.831 12.1024 147.634 12.224 147.483 12.3871C147.336 12.5471 147.262 12.7656 147.262 13.0426C147.262 13.4212 147.402 13.7074 147.682 13.9013C147.965 14.0921 148.324 14.1875 148.757 14.1875Z" fill="#007386"/>
</svg>
